# xmcd
#
# Track frame offsets: 
#        150
#        18780
#        35351
#        50052
#        65653
#        81048
#        97212
#        120070
#        137678
#        152445
#        167558
#        184650
#        204537
#        219147
#        236623
#        253186
#
# Disc length: 3601 seconds
#
# Revision: 0
# Processed by: cddbd v1.5.2PL0 Copyright (c) Steve Scherf et al.
# Submitted via: ExactAudioCopy v0.99pb5
#
DISCID=ce0e0f10
DTITLE=Pat O'Brien - Rockin' The Blues And Spankin' The Swang
DYEAR=2003
DGENRE=Blues
TTITLE0=My Thing Is You
TTITLE1=Mr. Vee
TTITLE2=She Don't Need No Diamonds
TTITLE3=The E Flat Special
TTITLE4=I Think She's Just Using Me For Sex
TTITLE5=Like That
TTITLE6=Judas Star
TTITLE7=Love Strut
TTITLE8=The Jimmy Jump
TTITLE9=The Continental
TTITLE10=You Ask For A Little
TTITLE11=Back From This Daydream
TTITLE12=Cajun Chopsticks
TTITLE13=That's My Ex-Wife
TTITLE14=Steel Workin' Man
TTITLE15=Broken Doll
EXTD=
EXTT0=
EXTT1=
EXTT2=
EXTT3=
EXTT4=
EXTT5=
EXTT6=
EXTT7=
EXTT8=
EXTT9=
EXTT10=
EXTT11=
EXTT12=
EXTT13=
EXTT14=
EXTT15=
PLAYORDER=
